<svg width="473" height="359" viewBox="0 0 473 359" fill="none" xmlns="http://www.w3.org/2000/svg">
<g id="Group 1000001641">
<path id="Ellipse 1328" d="M449 106C449 133.446 443.594 160.624 433.091 185.981C422.588 211.338 407.193 234.378 387.785 253.785C368.378 273.193 345.338 288.588 319.981 299.091C294.624 309.594 267.446 315 240 315C212.554 315 185.376 309.594 160.019 299.091C134.662 288.588 111.622 273.193 92.2147 253.785C72.8072 234.378 57.4124 211.338 46.9092 185.981C36.4059 160.624 31 133.446 31 106L449 106Z" fill="#FFE9E9"/>
<path id="01" d="M4.46063 104C4.46063 92.992 6.57263 84.32 10.7966 77.984C15.0846 71.648 21.9646 68.48 31.4366 68.48C40.9086 68.48 47.7566 71.648 51.9806 77.984C56.2686 84.32 58.4126 92.992 58.4126 104C58.4126 115.136 56.2686 123.872 51.9806 130.208C47.7566 136.544 40.9086 139.712 31.4366 139.712C21.9646 139.712 15.0846 136.544 10.7966 130.208C6.57263 123.872 4.46063 115.136 4.46063 104ZM42.2846 104C42.2846 97.536 41.5806 92.576 40.1726 89.12C38.7646 85.6 35.8526 83.84 31.4366 83.84C27.0206 83.84 24.1086 85.6 22.7006 89.12C21.2926 92.576 20.5886 97.536 20.5886 104C20.5886 108.352 20.8446 111.968 21.3566 114.848C21.8686 117.664 22.8926 119.968 24.4286 121.76C26.0286 123.488 28.3646 124.352 31.4366 124.352C34.5086 124.352 36.8126 123.488 38.3486 121.76C39.9486 119.968 41.0046 117.664 41.5166 114.848C42.0286 111.968 42.2846 108.352 42.2846 104ZM65.3576 85.184V69.92H91.9496V140H74.8616V85.184H65.3576Z" fill="#D7D7D7"/>
<g id="Accbox">
<g id="Rectangle 4313" filter="url(#filter0_ddddd_15_4)">
<rect x="119" y="1" width="325.402" height="285" fill="white"/>
<rect x="119.301" y="1.30123" width="324.8" height="284.398" stroke="#F1F1F1" stroke-width="0.602457"/>
</g>
<g id="Group 1000001636">
<path id="Create Account" d="M181.119 56.8882C181.119 55.1061 181.53 53.5075 182.351 52.0924C183.189 50.6772 184.316 49.5765 185.732 48.7903C187.164 47.9866 188.728 47.5848 190.423 47.5848C192.362 47.5848 194.083 48.0652 195.585 49.0261C197.105 49.9696 198.206 51.3149 198.887 53.062H195.297C194.825 52.1011 194.17 51.3848 193.332 50.913C192.493 50.4413 191.523 50.2055 190.423 50.2055C189.217 50.2055 188.143 50.4763 187.199 51.0179C186.256 51.5595 185.513 52.337 184.972 53.3503C184.447 54.3636 184.185 55.5429 184.185 56.8882C184.185 58.2335 184.447 59.4128 184.972 60.4261C185.513 61.4395 186.256 62.2257 187.199 62.7848C188.143 63.3264 189.217 63.5972 190.423 63.5972C191.523 63.5972 192.493 63.3613 193.332 62.8896C194.17 62.4179 194.825 61.7016 195.297 60.7406H198.887C198.206 62.4878 197.105 63.833 195.585 64.7765C194.083 65.7199 192.362 66.1917 190.423 66.1917C188.71 66.1917 187.147 65.7986 185.732 65.0124C184.316 64.2087 183.189 63.0993 182.351 61.6841C181.53 60.2689 181.119 58.6703 181.119 56.8882ZM205.11 53.691C205.547 52.9572 206.123 52.3894 206.84 51.9875C207.573 51.5682 208.438 51.3586 209.434 51.3586V54.451H208.674C207.503 54.451 206.612 54.748 206.001 55.342C205.407 55.936 205.11 56.9668 205.11 58.4344V66.0344H202.122V51.5944H205.11V53.691ZM225.153 58.4606C225.153 59.0022 225.118 59.4914 225.048 59.9282H214.015C214.102 61.0813 214.53 62.0073 215.299 62.7061C216.068 63.405 217.011 63.7544 218.129 63.7544C219.737 63.7544 220.872 63.0818 221.536 61.7365H224.76C224.323 63.0643 223.528 64.1563 222.375 65.0124C221.239 65.851 219.824 66.2703 218.129 66.2703C216.749 66.2703 215.508 65.9645 214.408 65.353C213.325 64.7241 212.468 63.8505 211.84 62.7324C211.228 61.5967 210.922 60.2864 210.922 58.8013C210.922 57.3163 211.219 56.0147 211.813 54.8965C212.425 53.7609 213.272 52.8873 214.355 52.2758C215.456 51.6643 216.714 51.3586 218.129 51.3586C219.492 51.3586 220.706 51.6556 221.772 52.2496C222.838 52.8436 223.668 53.6822 224.262 54.7655C224.856 55.8312 225.153 57.0629 225.153 58.4606ZM222.034 57.5172C222.017 56.4165 221.623 55.5342 220.855 54.8703C220.086 54.2064 219.134 53.8744 217.998 53.8744C216.967 53.8744 216.085 54.2064 215.351 54.8703C214.617 55.5167 214.181 56.399 214.041 57.5172H222.034ZM226.835 58.7489C226.835 57.2988 227.132 56.0147 227.726 54.8965C228.337 53.7783 229.158 52.9135 230.189 52.302C231.238 51.673 232.391 51.3586 233.649 51.3586C234.784 51.3586 235.771 51.5857 236.61 52.0399C237.466 52.4767 238.147 53.0271 238.654 53.691V51.5944H241.668V66.0344H238.654V63.8855C238.147 64.5668 237.457 65.1347 236.584 65.5889C235.71 66.0432 234.714 66.2703 233.596 66.2703C232.356 66.2703 231.22 65.9558 230.189 65.3268C229.158 64.6804 228.337 63.7894 227.726 62.6537C227.132 61.5006 226.835 60.199 226.835 58.7489ZM238.654 58.8013C238.654 57.8055 238.444 56.9406 238.025 56.2068C237.623 55.473 237.09 54.914 236.427 54.5296C235.763 54.1452 235.046 53.953 234.278 53.953C233.509 53.953 232.792 54.1452 232.129 54.5296C231.465 54.8965 230.923 55.4468 230.504 56.1806C230.102 56.897 229.901 57.753 229.901 58.7489C229.901 59.7448 230.102 60.6183 230.504 61.3696C230.923 62.1209 231.465 62.6974 232.129 63.0993C232.81 63.4836 233.526 63.6758 234.278 63.6758C235.046 63.6758 235.763 63.4836 236.427 63.0993C237.09 62.7149 237.623 62.1558 238.025 61.422C238.444 60.6707 238.654 59.7972 238.654 58.8013ZM248.815 54.0317V62.0248C248.815 62.5664 248.938 62.9595 249.182 63.2041C249.444 63.4312 249.881 63.5448 250.493 63.5448H252.327V66.0344H249.969C248.623 66.0344 247.592 65.7199 246.876 65.091C246.16 64.462 245.802 63.4399 245.802 62.0248V54.0317H244.098V51.5944H245.802V48.0041H248.815V51.5944H252.327V54.0317H248.815ZM268.053 58.4606C268.053 59.0022 268.018 59.4914 267.948 59.9282H256.915C257.003 61.0813 257.431 62.0073 258.199 62.7061C258.968 63.405 259.911 63.7544 261.03 63.7544C262.637 63.7544 263.773 63.0818 264.437 61.7365H267.66C267.223 63.0643 266.428 64.1563 265.275 65.0124C264.14 65.851 262.724 66.2703 261.03 66.2703C259.649 66.2703 258.409 65.9645 257.308 65.353C256.225 64.7241 255.369 63.8505 254.74 62.7324C254.129 61.5967 253.823 60.2864 253.823 58.8013C253.823 57.3163 254.12 56.0147 254.714 54.8965C255.325 53.7609 256.173 52.8873 257.256 52.2758C258.357 51.6643 259.614 51.3586 261.03 51.3586C262.392 51.3586 263.607 51.6556 264.672 52.2496C265.738 52.8436 266.568 53.6822 267.162 54.7655C267.756 55.8312 268.053 57.0629 268.053 58.4606ZM264.934 57.5172C264.917 56.4165 264.524 55.5342 263.755 54.8703C262.986 54.2064 262.034 53.8744 260.899 53.8744C259.868 53.8744 258.986 54.2064 258.252 54.8703C257.518 55.5167 257.081 56.399 256.941 57.5172H264.934ZM288.257 62.313H280.631L279.321 66.0344H276.202L282.728 47.7944H286.187L292.713 66.0344H289.568L288.257 62.313ZM287.419 59.8758L284.457 51.411L281.47 59.8758H287.419ZM294.292 58.8013C294.292 57.3163 294.589 56.0147 295.183 54.8965C295.794 53.7609 296.633 52.8873 297.699 52.2758C298.765 51.6643 299.988 51.3586 301.368 51.3586C303.115 51.3586 304.556 51.7779 305.692 52.6165C306.845 53.4376 307.623 54.617 308.024 56.1544H304.801C304.539 55.4381 304.12 54.879 303.543 54.4772C302.966 54.0753 302.241 53.8744 301.368 53.8744C300.145 53.8744 299.166 54.3112 298.433 55.1848C297.716 56.0409 297.358 57.2464 297.358 58.8013C297.358 60.3563 297.716 61.5705 298.433 62.4441C299.166 63.3176 300.145 63.7544 301.368 63.7544C303.097 63.7544 304.242 62.9944 304.801 61.4744H308.024C307.605 62.942 306.819 64.1126 305.666 64.9861C304.513 65.8422 303.08 66.2703 301.368 66.2703C299.988 66.2703 298.765 65.9645 297.699 65.353C296.633 64.7241 295.794 63.8505 295.183 62.7324C294.589 61.5967 294.292 60.2864 294.292 58.8013ZM309.744 58.8013C309.744 57.3163 310.041 56.0147 310.635 54.8965C311.246 53.7609 312.085 52.8873 313.151 52.2758C314.216 51.6643 315.439 51.3586 316.82 51.3586C318.567 51.3586 320.008 51.7779 321.144 52.6165C322.297 53.4376 323.074 54.617 323.476 56.1544H320.253C319.991 55.4381 319.571 54.879 318.995 54.4772C318.418 54.0753 317.693 53.8744 316.82 53.8744C315.597 53.8744 314.618 54.3112 313.884 55.1848C313.168 56.0409 312.81 57.2464 312.81 58.8013C312.81 60.3563 313.168 61.5705 313.884 62.4441C314.618 63.3176 315.597 63.7544 316.82 63.7544C318.549 63.7544 319.694 62.9944 320.253 61.4744H323.476C323.057 62.942 322.271 64.1126 321.118 64.9861C319.964 65.8422 318.532 66.2703 316.82 66.2703C315.439 66.2703 314.216 65.9645 313.151 65.353C312.085 64.7241 311.246 63.8505 310.635 62.7324C310.041 61.5967 309.744 60.2864 309.744 58.8013ZM332.455 66.2703C331.092 66.2703 329.86 65.9645 328.76 65.353C327.659 64.7241 326.794 63.8505 326.165 62.7324C325.536 61.5967 325.222 60.2864 325.222 58.8013C325.222 57.3337 325.545 56.0321 326.191 54.8965C326.838 53.7609 327.72 52.8873 328.838 52.2758C329.957 51.6643 331.206 51.3586 332.586 51.3586C333.966 51.3586 335.215 51.6643 336.334 52.2758C337.452 52.8873 338.334 53.7609 338.98 54.8965C339.627 56.0321 339.95 57.3337 339.95 58.8013C339.95 60.2689 339.618 61.5705 338.954 62.7061C338.29 63.8418 337.382 64.7241 336.229 65.353C335.093 65.9645 333.835 66.2703 332.455 66.2703ZM332.455 63.6758C333.224 63.6758 333.94 63.4924 334.604 63.1255C335.285 62.7586 335.836 62.2082 336.255 61.4744C336.674 60.7406 336.884 59.8496 336.884 58.8013C336.884 57.753 336.683 56.8707 336.281 56.1544C335.879 55.4206 335.346 54.8703 334.683 54.5034C334.019 54.1365 333.302 53.953 332.534 53.953C331.765 53.953 331.048 54.1365 330.385 54.5034C329.738 54.8703 329.223 55.4206 328.838 56.1544C328.454 56.8707 328.262 57.753 328.262 58.8013C328.262 60.3563 328.655 61.5618 329.441 62.4179C330.245 63.2565 331.249 63.6758 332.455 63.6758ZM355.719 51.5944V66.0344H352.731V64.331C352.259 64.925 351.639 65.3967 350.87 65.7461C350.119 66.0781 349.315 66.2441 348.459 66.2441C347.324 66.2441 346.302 66.0082 345.393 65.5365C344.502 65.0648 343.795 64.3659 343.27 63.4399C342.764 62.514 342.51 61.3958 342.51 60.0855V51.5944H345.472V59.6399C345.472 60.9328 345.795 61.9287 346.441 62.6275C347.088 63.3089 347.97 63.6496 349.088 63.6496C350.206 63.6496 351.089 63.3089 351.735 62.6275C352.399 61.9287 352.731 60.9328 352.731 59.6399V51.5944H355.719ZM366.684 51.3586C367.82 51.3586 368.833 51.5944 369.724 52.0661C370.632 52.5379 371.34 53.2367 371.847 54.1627C372.353 55.0887 372.607 56.2068 372.607 57.5172V66.0344H369.645V57.9627C369.645 56.6698 369.322 55.6827 368.676 55.0013C368.029 54.3025 367.147 53.953 366.029 53.953C364.911 53.953 364.02 54.3025 363.356 55.0013C362.709 55.6827 362.386 56.6698 362.386 57.9627V66.0344H359.398V51.5944H362.386V53.2455C362.875 52.6514 363.495 52.1884 364.247 51.8565C365.015 51.5245 365.828 51.3586 366.684 51.3586ZM379.641 54.0317V62.0248C379.641 62.5664 379.763 62.9595 380.008 63.2041C380.27 63.4312 380.707 63.5448 381.318 63.5448H383.153V66.0344H380.794C379.449 66.0344 378.418 65.7199 377.702 65.091C376.985 64.462 376.627 63.4399 376.627 62.0248V54.0317H374.924V51.5944H376.627V48.0041H379.641V51.5944H383.153V54.0317H379.641Z" fill="#222831"/>
<g id="Group 1000001635">
<rect id="Rectangle 4314" x="156.126" y="98.1838" width="252.241" height="10.9195" rx="5.45977" fill="#F1F1F1"/>
<rect id="Rectangle 4315" x="168.138" y="124.391" width="228.218" height="10.9195" rx="5.45977" fill="#F1F1F1"/>
<rect id="Rectangle 4316" x="171.414" y="150.598" width="221.667" height="10.9195" rx="5.45977" fill="#F1F1F1"/>
<rect id="Rectangle 4317" x="168.138" y="176.805" width="228.218" height="10.9195" rx="5.45977" fill="#F1F1F1"/>
</g>
<g id="Group 1">
<g id="Rectangle 12" filter="url(#filter1_dddddd_15_4)">
<path d="M236.931 215.023H328.505V249.965H236.931V215.023Z" fill="#0AC05E"/>
</g>
<path id="Sign up" d="M265.722 236.738C265.223 236.738 264.775 236.652 264.378 236.478C263.987 236.297 263.68 236.051 263.456 235.741C263.232 235.422 263.116 235.057 263.109 234.645H264.161C264.197 235 264.341 235.3 264.594 235.545C264.855 235.784 265.231 235.903 265.722 235.903C266.192 235.903 266.561 235.788 266.828 235.556C267.103 235.318 267.24 235.014 267.24 234.645C267.24 234.356 267.161 234.121 267.002 233.94C266.843 233.76 266.644 233.622 266.405 233.528C266.167 233.434 265.845 233.333 265.44 233.225C264.941 233.095 264.54 232.964 264.237 232.834C263.94 232.704 263.684 232.502 263.467 232.227C263.257 231.945 263.152 231.569 263.152 231.099C263.152 230.687 263.257 230.322 263.467 230.004C263.676 229.686 263.969 229.44 264.345 229.267C264.728 229.093 265.166 229.006 265.657 229.006C266.366 229.006 266.944 229.183 267.392 229.538C267.848 229.892 268.104 230.362 268.162 230.947H267.078C267.042 230.658 266.89 230.405 266.622 230.188C266.355 229.964 266.001 229.852 265.56 229.852C265.147 229.852 264.811 229.961 264.551 230.178C264.291 230.387 264.161 230.684 264.161 231.067C264.161 231.341 264.237 231.566 264.388 231.739C264.547 231.913 264.739 232.046 264.963 232.14C265.194 232.227 265.516 232.328 265.928 232.444C266.427 232.581 266.828 232.719 267.132 232.856C267.436 232.986 267.696 233.192 267.913 233.474C268.13 233.749 268.238 234.125 268.238 234.602C268.238 234.971 268.14 235.318 267.945 235.643C267.75 235.968 267.461 236.232 267.078 236.435C266.695 236.637 266.243 236.738 265.722 236.738ZM270.2 229.755C270.012 229.755 269.853 229.69 269.723 229.559C269.593 229.429 269.528 229.27 269.528 229.082C269.528 228.894 269.593 228.735 269.723 228.605C269.853 228.475 270.012 228.41 270.2 228.41C270.381 228.41 270.533 228.475 270.655 228.605C270.786 228.735 270.851 228.894 270.851 229.082C270.851 229.27 270.786 229.429 270.655 229.559C270.533 229.69 270.381 229.755 270.2 229.755ZM270.677 230.72V236.662H269.69V230.72H270.677ZM274.81 230.622C275.323 230.622 275.771 230.734 276.154 230.958C276.545 231.182 276.834 231.464 277.022 231.804V230.72H278.02V236.792C278.02 237.335 277.904 237.815 277.673 238.235C277.441 238.661 277.109 238.994 276.675 239.232C276.248 239.471 275.75 239.59 275.178 239.59C274.398 239.59 273.747 239.406 273.227 239.037C272.706 238.669 272.399 238.166 272.305 237.53H273.281C273.389 237.891 273.613 238.181 273.953 238.397C274.293 238.622 274.701 238.734 275.178 238.734C275.721 238.734 276.162 238.564 276.501 238.224C276.848 237.884 277.022 237.407 277.022 236.792V235.545C276.827 235.892 276.538 236.182 276.154 236.413C275.771 236.644 275.323 236.76 274.81 236.76C274.282 236.76 273.801 236.63 273.367 236.37C272.941 236.109 272.605 235.744 272.359 235.274C272.113 234.804 271.99 234.269 271.99 233.669C271.99 233.062 272.113 232.531 272.359 232.075C272.605 231.613 272.941 231.255 273.367 231.002C273.801 230.749 274.282 230.622 274.81 230.622ZM277.022 233.68C277.022 233.232 276.932 232.842 276.751 232.509C276.57 232.176 276.324 231.923 276.013 231.75C275.71 231.569 275.374 231.479 275.005 231.479C274.636 231.479 274.3 231.566 273.996 231.739C273.693 231.913 273.451 232.166 273.27 232.498C273.089 232.831 272.999 233.221 272.999 233.669C272.999 234.125 273.089 234.522 273.27 234.862C273.451 235.195 273.693 235.451 273.996 235.632C274.3 235.806 274.636 235.892 275.005 235.892C275.374 235.892 275.71 235.806 276.013 235.632C276.324 235.451 276.57 235.195 276.751 234.862C276.932 234.522 277.022 234.128 277.022 233.68ZM282.583 230.611C283.306 230.611 283.891 230.832 284.339 231.273C284.788 231.707 285.012 232.336 285.012 233.16V236.662H284.036V233.301C284.036 232.708 283.888 232.256 283.591 231.945C283.295 231.627 282.89 231.468 282.377 231.468C281.856 231.468 281.44 231.631 281.13 231.956C280.826 232.281 280.674 232.755 280.674 233.377V236.662H279.687V230.72H280.674V231.566C280.869 231.262 281.133 231.027 281.466 230.861C281.806 230.694 282.178 230.611 282.583 230.611ZM294.785 230.72V236.662H293.798V235.784C293.61 236.088 293.347 236.326 293.007 236.5C292.674 236.666 292.305 236.749 291.901 236.749C291.438 236.749 291.022 236.655 290.654 236.467C290.285 236.272 289.992 235.983 289.775 235.6C289.566 235.216 289.461 234.75 289.461 234.201V230.72H290.437V234.071C290.437 234.656 290.585 235.108 290.881 235.426C291.178 235.737 291.583 235.892 292.096 235.892C292.624 235.892 293.039 235.73 293.343 235.404C293.647 235.079 293.798 234.606 293.798 233.984V230.72H294.785ZM297.438 231.815C297.633 231.475 297.923 231.193 298.306 230.969C298.696 230.738 299.148 230.622 299.661 230.622C300.189 230.622 300.666 230.749 301.093 231.002C301.526 231.255 301.866 231.613 302.112 232.075C302.358 232.531 302.481 233.062 302.481 233.669C302.481 234.269 302.358 234.804 302.112 235.274C301.866 235.744 301.526 236.109 301.093 236.37C300.666 236.63 300.189 236.76 299.661 236.76C299.155 236.76 298.707 236.648 298.317 236.424C297.933 236.192 297.641 235.907 297.438 235.567V239.482H296.451V230.72H297.438V231.815ZM301.472 233.669C301.472 233.221 301.382 232.831 301.201 232.498C301.02 232.166 300.775 231.913 300.464 231.739C300.16 231.566 299.824 231.479 299.455 231.479C299.094 231.479 298.758 231.569 298.447 231.75C298.143 231.923 297.897 232.18 297.709 232.52C297.529 232.852 297.438 233.239 297.438 233.68C297.438 234.128 297.529 234.522 297.709 234.862C297.897 235.195 298.143 235.451 298.447 235.632C298.758 235.806 299.094 235.892 299.455 235.892C299.824 235.892 300.16 235.806 300.464 235.632C300.775 235.451 301.02 235.195 301.201 234.862C301.382 234.522 301.472 234.125 301.472 233.669Z" fill="#FAFAFA"/>
</g>
</g>
</g>
</g>
<defs>
<filter id="filter0_ddddd_15_4" x="90.7738" y="0.219037" width="381.855" height="353.055" filterUnits="userSpaceOnUse" color-interpolation-filters="sRGB">
<feFlood flood-opacity="0" result="BackgroundImageFix"/>
<feColorMatrix in="SourceAlpha" type="matrix" values="0 0 0 0 0 0 0 0 0 0 0 0 0 0 0 0 0 0 127 0" result="hardAlpha"/>
<feOffset dy="1.11566"/>
<feGaussianBlur stdDeviation="0.948313"/>
<feColorMatrix type="matrix" values="0 0 0 0 0.219608 0 0 0 0 0.219608 0 0 0 0 0.219608 0 0 0 0.0240741 0"/>
<feBlend mode="normal" in2="BackgroundImageFix" result="effect1_dropShadow_15_4"/>
<feColorMatrix in="SourceAlpha" type="matrix" values="0 0 0 0 0 0 0 0 0 0 0 0 0 0 0 0 0 0 127 0" result="hardAlpha"/>
<feOffset dy="4.90891"/>
<feGaussianBlur stdDeviation="1.96356"/>
<feColorMatrix type="matrix" values="0 0 0 0 0.219608 0 0 0 0 0.219608 0 0 0 0 0.219608 0 0 0 0.0392593 0"/>
<feBlend mode="normal" in2="effect1_dropShadow_15_4" result="effect2_dropShadow_15_4"/>
<feColorMatrix in="SourceAlpha" type="matrix" values="0 0 0 0 0 0 0 0 0 0 0 0 0 0 0 0 0 0 127 0" result="hardAlpha"/>
<feOffset dy="12.0491"/>
<feGaussianBlur stdDeviation="3.91597"/>
<feColorMatrix type="matrix" values="0 0 0 0 0.219608 0 0 0 0 0.219608 0 0 0 0 0.219608 0 0 0 0.05 0"/>
<feBlend mode="normal" in2="effect2_dropShadow_15_4" result="effect3_dropShadow_15_4"/>
<feColorMatrix in="SourceAlpha" type="matrix" values="0 0 0 0 0 0 0 0 0 0 0 0 0 0 0 0 0 0 127 0" result="hardAlpha"/>
<feOffset dy="23.2058"/>
<feGaussianBlur stdDeviation="7.67575"/>
<feColorMatrix type="matrix" values="0 0 0 0 0.219608 0 0 0 0 0.219608 0 0 0 0 0.219608 0 0 0 0.0607407 0"/>
<feBlend mode="normal" in2="effect3_dropShadow_15_4" result="effect4_dropShadow_15_4"/>
<feColorMatrix in="SourceAlpha" type="matrix" values="0 0 0 0 0 0 0 0 0 0 0 0 0 0 0 0 0 0 127 0" result="hardAlpha"/>
<feOffset dy="39.0482"/>
<feGaussianBlur stdDeviation="14.1131"/>
<feColorMatrix type="matrix" values="0 0 0 0 0.219608 0 0 0 0 0.219608 0 0 0 0 0.219608 0 0 0 0.0759259 0"/>
<feBlend mode="normal" in2="effect4_dropShadow_15_4" result="effect5_dropShadow_15_4"/>
<feBlend mode="normal" in="SourceGraphic" in2="effect5_dropShadow_15_4" result="shape"/>
</filter>
<filter id="filter1_dddddd_15_4" x="188.734" y="214.242" width="187.967" height="144.166" filterUnits="userSpaceOnUse" color-interpolation-filters="sRGB">
<feFlood flood-opacity="0" result="BackgroundImageFix"/>
<feColorMatrix in="SourceAlpha" type="matrix" values="0 0 0 0 0 0 0 0 0 0 0 0 0 0 0 0 0 0 127 0" result="hardAlpha"/>
<feOffset dy="1.11566"/>
<feGaussianBlur stdDeviation="0.948313"/>
<feColorMatrix type="matrix" values="0 0 0 0 0.219608 0 0 0 0 0.219608 0 0 0 0 0.219608 0 0 0 0.0240741 0"/>
<feBlend mode="normal" in2="BackgroundImageFix" result="effect1_dropShadow_15_4"/>
<feColorMatrix in="SourceAlpha" type="matrix" values="0 0 0 0 0 0 0 0 0 0 0 0 0 0 0 0 0 0 127 0" result="hardAlpha"/>
<feOffset dy="4.90891"/>
<feGaussianBlur stdDeviation="1.96356"/>
<feColorMatrix type="matrix" values="0 0 0 0 0.219608 0 0 0 0 0.219608 0 0 0 0 0.219608 0 0 0 0.0392593 0"/>
<feBlend mode="normal" in2="effect1_dropShadow_15_4" result="effect2_dropShadow_15_4"/>
<feColorMatrix in="SourceAlpha" type="matrix" values="0 0 0 0 0 0 0 0 0 0 0 0 0 0 0 0 0 0 127 0" result="hardAlpha"/>
<feOffset dy="12.0491"/>
<feGaussianBlur stdDeviation="3.91597"/>
<feColorMatrix type="matrix" values="0 0 0 0 0.219608 0 0 0 0 0.219608 0 0 0 0 0.219608 0 0 0 0.05 0"/>
<feBlend mode="normal" in2="effect2_dropShadow_15_4" result="effect3_dropShadow_15_4"/>
<feColorMatrix in="SourceAlpha" type="matrix" values="0 0 0 0 0 0 0 0 0 0 0 0 0 0 0 0 0 0 127 0" result="hardAlpha"/>
<feOffset dy="23.2058"/>
<feGaussianBlur stdDeviation="7.67575"/>
<feColorMatrix type="matrix" values="0 0 0 0 0.219608 0 0 0 0 0.219608 0 0 0 0 0.219608 0 0 0 0.0607407 0"/>
<feBlend mode="normal" in2="effect3_dropShadow_15_4" result="effect4_dropShadow_15_4"/>
<feColorMatrix in="SourceAlpha" type="matrix" values="0 0 0 0 0 0 0 0 0 0 0 0 0 0 0 0 0 0 127 0" result="hardAlpha"/>
<feOffset dy="39.0482"/>
<feGaussianBlur stdDeviation="14.1131"/>
<feColorMatrix type="matrix" values="0 0 0 0 0.219608 0 0 0 0 0.219608 0 0 0 0 0.219608 0 0 0 0.0759259 0"/>
<feBlend mode="normal" in2="effect4_dropShadow_15_4" result="effect5_dropShadow_15_4"/>
<feColorMatrix in="SourceAlpha" type="matrix" values="0 0 0 0 0 0 0 0 0 0 0 0 0 0 0 0 0 0 127 0" result="hardAlpha"/>
<feOffset dy="60.2457"/>
<feGaussianBlur stdDeviation="24.0983"/>
<feColorMatrix type="matrix" values="0 0 0 0 0.219608 0 0 0 0 0.219608 0 0 0 0 0.219608 0 0 0 0.1 0"/>
<feBlend mode="normal" in2="effect5_dropShadow_15_4" result="effect6_dropShadow_15_4"/>
<feBlend mode="normal" in="SourceGraphic" in2="effect6_dropShadow_15_4" result="shape"/>
</filter>
</defs>
</svg>
