<svg width="491" height="289" viewBox="0 0 491 289" fill="none" xmlns="http://www.w3.org/2000/svg">
<g id="Group 1000001641">
<g id="Ellipse 1328" filter="url(#filter0_d_15_4)">
<path d="M460 48C460 75.4463 454.594 102.624 444.091 127.981C433.588 153.338 418.193 176.378 398.785 195.785C379.378 215.193 356.338 230.588 330.981 241.091C305.624 251.594 278.446 257 251 257C223.554 257 196.376 251.594 171.019 241.091C145.662 230.588 122.622 215.193 103.215 195.785C83.8072 176.378 68.4124 153.338 57.9092 127.981C47.4059 102.624 42 75.4463 42 48L460 48Z" fill="#FBF1D7"/>
</g>
<g id="Group 1000001643">
<g id="Rectangle 716" filter="url(#filter1_ddddd_15_4)">
<rect x="152" y="82" width="300" height="114" fill="white"/>
<rect x="152.414" y="82.4138" width="299.172" height="113.172" stroke="#F1F1F1" stroke-width="0.827586"/>
</g>
<g id="Group 688">
<path id="Vector" d="M329 139C329 146.161 326.155 153.029 321.092 158.092C316.028 163.155 309.161 166 302 166C294.839 166 287.972 163.155 282.908 158.092C277.845 153.029 275 146.161 275 139C275 131.839 277.845 124.972 282.908 119.908C287.972 114.845 294.839 112 302 112C309.161 112 316.028 114.845 321.092 119.908C326.155 124.972 329 131.839 329 139Z" fill="url(#paint0_linear_15_4)"/>
<g id="Vector_2" filter="url(#filter2_d_15_4)">
<path d="M292.549 155.702C292.549 153.92 296.777 154.204 301.999 154.204C307.216 154.204 311.449 153.92 311.449 155.702C311.449 157.849 307.216 159.25 301.999 159.25C296.777 159.25 292.549 157.849 292.549 155.702Z" fill="#222222"/>
</g>
<path id="Vector_3" d="M292.549 155.702C292.549 153.92 296.777 154.204 301.999 154.204C307.216 154.204 311.449 153.92 311.449 155.702C311.449 157.849 307.216 159.25 301.999 159.25C296.777 159.25 292.549 157.849 292.549 155.702Z" fill="url(#paint1_linear_15_4)"/>
<path id="Vector_4" d="M287.147 145.18C287.147 142.511 288.963 140.351 291.197 140.351C293.434 140.351 295.247 142.511 295.247 145.18C295.247 146.291 294.933 147.317 294.396 148.13C294.146 148.505 293.762 148.77 293.323 148.872C292.817 148.994 292.064 149.126 291.197 149.126C290.329 149.126 289.573 148.994 289.071 148.872C288.631 148.771 288.247 148.505 287.997 148.13C287.432 147.251 287.137 146.225 287.147 145.18ZM308.747 145.18C308.747 142.511 310.559 140.351 312.797 140.351C315.031 140.351 316.847 142.511 316.847 145.18C316.847 146.291 316.53 147.317 315.996 148.13C315.746 148.505 315.363 148.771 314.923 148.872C314.227 149.039 313.513 149.124 312.797 149.126C311.93 149.126 311.177 148.994 310.671 148.872C310.231 148.77 309.846 148.505 309.594 148.13C309.031 147.25 308.737 146.225 308.747 145.18Z" fill="url(#paint2_linear_15_4)"/>
<g id="Vector_5" filter="url(#filter3_i_15_4)">
<path d="M287.147 145.18C287.147 142.511 288.963 140.351 291.197 140.351C293.434 140.351 295.247 142.511 295.247 145.18C295.247 146.291 294.933 147.317 294.396 148.13C294.146 148.505 293.762 148.77 293.323 148.872C292.817 148.994 292.064 149.126 291.197 149.126C290.329 149.126 289.573 148.994 289.071 148.872C288.631 148.771 288.247 148.505 287.997 148.13C287.432 147.251 287.137 146.225 287.147 145.18ZM308.747 145.18C308.747 142.511 310.559 140.351 312.797 140.351C315.031 140.351 316.847 142.511 316.847 145.18C316.847 146.291 316.53 147.317 315.996 148.13C315.746 148.505 315.363 148.771 314.923 148.872C314.227 149.039 313.513 149.124 312.797 149.126C311.93 149.126 311.177 148.994 310.671 148.872C310.231 148.77 309.846 148.505 309.594 148.13C309.031 147.25 308.737 146.225 308.747 145.18Z" fill="#222222"/>
</g>
<path id="Vector_6" d="M291.771 143.496C291.788 143.575 291.795 143.656 291.795 143.736C291.795 144.414 291.201 144.971 290.465 144.971C289.732 144.971 289.138 144.414 289.138 143.736C289.138 143.456 289.24 143.196 289.408 142.99C290.164 143.169 290.958 143.341 291.771 143.496ZM311.771 144.971C311.059 144.971 310.479 144.455 310.445 143.797C311.319 143.669 312.186 143.51 313.03 143.338C313.077 143.467 313.1 143.603 313.098 143.739C313.098 144.414 312.507 144.971 311.771 144.971Z" fill="#4F4F67"/>
<g id="Vector_7" filter="url(#filter4_d_15_4)">
<path d="M305.374 137.177C305.374 138.682 305.924 139.202 306.875 139.202C307.82 139.202 308.273 138.271 308.583 135.604C312.39 135.604 318.836 137.407 319.457 137.407C320.058 137.407 320.392 137.12 320.527 136.506C320.645 135.972 320.45 135.466 319.781 135.156C317.686 134.187 311.536 132 306.335 132C305.768 132 305.374 132.29 305.374 133.016V137.177ZM295.414 135.604C295.724 138.271 296.177 139.202 297.122 139.202C298.073 139.202 298.624 138.682 298.624 137.177V133.016C298.624 132.29 298.229 132 297.662 132C292.461 132 286.312 134.187 284.216 135.156C283.547 135.466 283.352 135.972 283.47 136.506C283.608 137.12 283.942 137.407 284.54 137.407C285.161 137.407 291.607 135.604 295.414 135.604Z" fill="#222222"/>
</g>
<path id="Vector_8" d="M305.374 137.177C305.374 138.682 305.924 139.202 306.875 139.202C307.82 139.202 308.273 138.271 308.583 135.604C312.39 135.604 318.836 137.407 319.457 137.407C320.058 137.407 320.392 137.12 320.527 136.506C320.645 135.972 320.45 135.466 319.781 135.156C317.686 134.187 311.536 132 306.335 132C305.768 132 305.374 132.29 305.374 133.016V137.177ZM295.414 135.604C295.724 138.271 296.177 139.202 297.122 139.202C298.073 139.202 298.624 138.682 298.624 137.177V133.016C298.624 132.29 298.229 132 297.662 132C292.461 132 286.312 134.187 284.216 135.156C283.547 135.466 283.352 135.972 283.47 136.506C283.608 137.12 283.942 137.407 284.54 137.407C285.161 137.407 291.607 135.604 295.414 135.604Z" fill="url(#paint3_linear_15_4)"/>
</g>
<g id="Group">
<path id="Vector_9" d="M242 139C242 146.161 239.155 153.029 234.092 158.092C229.029 163.155 222.161 166 215 166C207.839 166 200.972 163.155 195.908 158.092C190.845 153.029 188 146.161 188 139C188 131.839 190.845 124.972 195.908 119.908C200.972 114.845 207.839 112 215 112C222.161 112 229.029 114.845 234.092 119.908C239.155 124.972 242 131.839 242 139Z" fill="url(#paint4_linear_15_4)"/>
<path id="Vector_10" d="M207.045 148.747C206.512 154.974 209.496 159.25 215 159.25C220.502 159.25 223.488 154.974 222.955 148.747C222.425 142.517 219.192 139 215 139C210.809 139 207.575 142.517 207.045 148.747Z" fill="url(#paint5_linear_15_4)"/>
<path id="Vector_11" d="M199.812 130.562C199.812 127.768 201.699 125.5 204.031 125.5C206.363 125.5 208.25 127.768 208.25 130.562C208.25 133.36 206.363 135.625 204.031 135.625C201.699 135.625 199.812 133.36 199.812 130.562ZM221.75 130.562C221.75 127.768 223.64 125.5 225.969 125.5C228.301 125.5 230.187 127.768 230.187 130.562C230.187 133.36 228.301 135.625 225.969 135.625C223.64 135.625 221.75 133.36 221.75 130.562Z" fill="url(#paint6_linear_15_4)"/>
<g id="Vector_12" filter="url(#filter5_i_15_4)">
<path d="M199.812 130.562C199.812 127.768 201.699 125.5 204.031 125.5C206.363 125.5 208.25 127.768 208.25 130.562C208.25 133.36 206.363 135.625 204.031 135.625C201.699 135.625 199.812 133.36 199.812 130.562ZM221.75 130.562C221.75 127.768 223.64 125.5 225.969 125.5C228.301 125.5 230.187 127.768 230.187 130.562C230.187 133.36 228.301 135.625 225.969 135.625C223.64 135.625 221.75 133.36 221.75 130.562Z" fill="#222222"/>
</g>
<path id="Vector_13" d="M203.127 127.415C203.755 127.557 204.106 128.266 203.91 128.998C203.718 129.734 203.053 130.213 202.425 130.071C201.797 129.93 201.446 129.221 201.642 128.485C201.835 127.756 202.499 127.27 203.127 127.415ZM225.598 127.628C226.293 127.787 226.685 128.573 226.469 129.383C226.253 130.203 225.517 130.733 224.818 130.578C224.123 130.422 223.732 129.633 223.948 128.819C224.16 128.003 224.899 127.469 225.601 127.628H225.598Z" fill="#4E506A"/>
<g id="Vector_14" filter="url(#filter6_d_15_4)">
<path d="M225.352 117.723C225.528 117.706 225.703 117.699 225.882 117.699C227.526 117.699 229.223 118.388 230.513 119.596C230.745 119.818 230.883 120.121 230.897 120.442C230.911 120.763 230.8 121.077 230.587 121.317C230.484 121.436 230.358 121.532 230.218 121.6C230.077 121.668 229.924 121.707 229.767 121.715C229.611 121.722 229.455 121.698 229.308 121.644C229.161 121.59 229.027 121.506 228.913 121.398C227.985 120.524 226.699 120.048 225.565 120.153C225.172 120.182 224.789 120.298 224.445 120.491C224.102 120.684 223.804 120.95 223.574 121.27C223.481 121.396 223.364 121.501 223.23 121.581C223.096 121.661 222.948 121.713 222.794 121.735C222.639 121.756 222.482 121.746 222.331 121.706C222.181 121.665 222.04 121.595 221.917 121.5C221.664 121.299 221.5 121.009 221.458 120.69C221.416 120.371 221.499 120.047 221.69 119.789C222.116 119.2 222.663 118.711 223.295 118.355C223.927 117.998 224.629 117.783 225.352 117.723ZM199.483 119.596C200.734 118.406 202.387 117.729 204.113 117.699C204.929 117.682 205.737 117.863 206.467 118.227C207.197 118.591 207.828 119.127 208.305 119.789C208.496 120.047 208.58 120.37 208.538 120.689C208.497 121.008 208.333 121.298 208.082 121.5C207.959 121.595 207.818 121.666 207.667 121.706C207.516 121.746 207.359 121.756 207.204 121.735C207.049 121.713 206.9 121.661 206.766 121.581C206.632 121.502 206.515 121.396 206.422 121.27C206.192 120.95 205.894 120.684 205.55 120.491C205.206 120.298 204.824 120.183 204.431 120.153C203.3 120.048 202.011 120.524 201.083 121.398C200.969 121.506 200.835 121.59 200.688 121.644C200.541 121.698 200.385 121.722 200.228 121.715C200.072 121.707 199.919 121.668 199.778 121.6C199.637 121.532 199.511 121.436 199.409 121.317C199.196 121.077 199.085 120.763 199.099 120.442C199.113 120.121 199.25 119.818 199.483 119.596Z" fill="#222222"/>
</g>
<path id="Vector_15" d="M225.352 117.723C225.528 117.706 225.703 117.699 225.882 117.699C227.526 117.699 229.223 118.388 230.513 119.596C230.745 119.818 230.883 120.121 230.897 120.442C230.911 120.763 230.8 121.077 230.587 121.317C230.484 121.436 230.358 121.532 230.218 121.6C230.077 121.668 229.924 121.707 229.767 121.715C229.611 121.722 229.455 121.698 229.308 121.644C229.161 121.59 229.027 121.506 228.913 121.398C227.985 120.524 226.699 120.048 225.565 120.153C225.172 120.182 224.789 120.298 224.445 120.491C224.102 120.684 223.804 120.95 223.574 121.27C223.481 121.396 223.364 121.501 223.23 121.581C223.096 121.661 222.948 121.713 222.794 121.735C222.639 121.756 222.482 121.746 222.331 121.706C222.181 121.665 222.04 121.595 221.917 121.5C221.664 121.299 221.5 121.009 221.458 120.69C221.416 120.371 221.499 120.047 221.69 119.789C222.116 119.2 222.663 118.711 223.295 118.355C223.927 117.998 224.629 117.783 225.352 117.723ZM199.483 119.596C200.734 118.406 202.387 117.729 204.113 117.699C204.929 117.682 205.737 117.863 206.467 118.227C207.197 118.591 207.828 119.127 208.305 119.789C208.496 120.047 208.58 120.37 208.538 120.689C208.497 121.008 208.333 121.298 208.082 121.5C207.959 121.595 207.818 121.666 207.667 121.706C207.516 121.746 207.359 121.756 207.204 121.735C207.049 121.713 206.9 121.661 206.766 121.581C206.632 121.502 206.515 121.396 206.422 121.27C206.192 120.95 205.894 120.684 205.55 120.491C205.206 120.298 204.824 120.183 204.431 120.153C203.3 120.048 202.011 120.524 201.083 121.398C200.969 121.506 200.835 121.59 200.688 121.644C200.541 121.698 200.385 121.722 200.228 121.715C200.072 121.707 199.919 121.668 199.778 121.6C199.637 121.532 199.511 121.436 199.409 121.317C199.196 121.077 199.085 120.763 199.099 120.442C199.113 120.121 199.25 119.818 199.483 119.596Z" fill="url(#paint7_linear_15_4)"/>
</g>
<g id="Group 689">
<path id="Vector_16" d="M389 112C381.839 112 374.971 114.845 369.908 119.908C364.844 124.972 362 131.839 362 139C362 146.161 364.844 153.029 369.908 158.092C374.971 163.155 381.839 166 389 166C396.161 166 403.028 163.155 408.092 158.092C413.155 153.029 416 146.161 416 139C416 131.839 413.155 124.972 408.092 119.908C403.028 114.845 396.161 112 389 112Z" fill="url(#paint8_linear_15_4)"/>
<path id="Vector_17" d="M397.349 125.5C389.931 125.5 389.003 131.656 389.003 131.656C389.003 131.656 388.078 125.5 380.66 125.5C373.525 125.5 371.446 132.999 372.317 137.009C374.612 147.606 389.003 155.031 389.003 155.031C389.003 155.031 403.397 147.606 405.692 137.009C406.56 132.999 404.477 125.5 397.349 125.5Z" fill="white"/>
</g>
</g>
<path id="03" d="M4.445 46C4.445 34.992 6.557 26.32 10.781 19.984C15.069 13.648 21.949 10.48 31.421 10.48C40.893 10.48 47.741 13.648 51.965 19.984C56.253 26.32 58.397 34.992 58.397 46C58.397 57.136 56.253 65.872 51.965 72.208C47.741 78.544 40.893 81.712 31.421 81.712C21.949 81.712 15.069 78.544 10.781 72.208C6.557 65.872 4.445 57.136 4.445 46ZM42.269 46C42.269 39.536 41.565 34.576 40.157 31.12C38.749 27.6 35.837 25.84 31.421 25.84C27.005 25.84 24.093 27.6 22.685 31.12C21.277 34.576 20.573 39.536 20.573 46C20.573 50.352 20.829 53.968 21.341 56.848C21.853 59.664 22.877 61.968 24.413 63.76C26.013 65.488 28.349 66.352 31.421 66.352C34.493 66.352 36.797 65.488 38.333 63.76C39.933 61.968 40.989 59.664 41.501 56.848C42.013 53.968 42.269 50.352 42.269 46ZM67.646 31.696C67.902 24.848 70.142 19.568 74.366 15.856C78.59 12.144 84.318 10.288 91.55 10.288C96.35 10.288 100.446 11.12 103.838 12.784C107.294 14.448 109.886 16.72 111.614 19.6C113.406 22.48 114.302 25.712 114.302 29.296C114.302 33.52 113.246 36.976 111.134 39.664C109.022 42.288 106.558 44.08 103.742 45.04V45.424C107.39 46.64 110.27 48.656 112.382 51.472C114.494 54.288 115.55 57.904 115.55 62.32C115.55 66.288 114.622 69.808 112.766 72.88C110.974 75.888 108.318 78.256 104.798 79.984C101.342 81.712 97.214 82.576 92.414 82.576C84.734 82.576 78.59 80.688 73.982 76.912C69.438 73.136 67.038 67.44 66.782 59.824H82.718C82.782 62.64 83.582 64.88 85.118 66.544C86.654 68.144 88.894 68.944 91.838 68.944C94.334 68.944 96.254 68.24 97.598 66.832C99.006 65.36 99.71 63.44 99.71 61.072C99.71 58 98.718 55.792 96.734 54.448C94.814 53.04 91.71 52.336 87.422 52.336H84.35V38.992H87.422C90.686 38.992 93.31 38.448 95.294 37.36C97.342 36.208 98.366 34.192 98.366 31.312C98.366 29.008 97.726 27.216 96.446 25.936C95.166 24.656 93.406 24.016 91.166 24.016C88.734 24.016 86.91 24.752 85.694 26.224C84.542 27.696 83.87 29.52 83.678 31.696H67.646Z" fill="#D7D7D7"/>
</g>
<defs>
<filter id="filter0_d_15_4" x="38" y="48" width="426" height="217" filterUnits="userSpaceOnUse" color-interpolation-filters="sRGB">
<feFlood flood-opacity="0" result="BackgroundImageFix"/>
<feColorMatrix in="SourceAlpha" type="matrix" values="0 0 0 0 0 0 0 0 0 0 0 0 0 0 0 0 0 0 127 0" result="hardAlpha"/>
<feOffset dy="4"/>
<feGaussianBlur stdDeviation="2"/>
<feComposite in2="hardAlpha" operator="out"/>
<feColorMatrix type="matrix" values="0 0 0 0 0 0 0 0 0 0 0 0 0 0 0 0 0 0 0.25 0"/>
<feBlend mode="normal" in2="BackgroundImageFix" result="effect1_dropShadow_15_4"/>
<feBlend mode="normal" in="SourceGraphic" in2="effect1_dropShadow_15_4" result="shape"/>
</filter>
<filter id="filter1_ddddd_15_4" x="113.226" y="80.9272" width="377.548" height="207.487" filterUnits="userSpaceOnUse" color-interpolation-filters="sRGB">
<feFlood flood-opacity="0" result="BackgroundImageFix"/>
<feColorMatrix in="SourceAlpha" type="matrix" values="0 0 0 0 0 0 0 0 0 0 0 0 0 0 0 0 0 0 127 0" result="hardAlpha"/>
<feOffset dy="1.53257"/>
<feGaussianBlur stdDeviation="1.30268"/>
<feColorMatrix type="matrix" values="0 0 0 0 0.219608 0 0 0 0 0.219608 0 0 0 0 0.219608 0 0 0 0.0240741 0"/>
<feBlend mode="normal" in2="BackgroundImageFix" result="effect1_dropShadow_15_4"/>
<feColorMatrix in="SourceAlpha" type="matrix" values="0 0 0 0 0 0 0 0 0 0 0 0 0 0 0 0 0 0 127 0" result="hardAlpha"/>
<feOffset dy="6.7433"/>
<feGaussianBlur stdDeviation="2.69732"/>
<feColorMatrix type="matrix" values="0 0 0 0 0.219608 0 0 0 0 0.219608 0 0 0 0 0.219608 0 0 0 0.0392593 0"/>
<feBlend mode="normal" in2="effect1_dropShadow_15_4" result="effect2_dropShadow_15_4"/>
<feColorMatrix in="SourceAlpha" type="matrix" values="0 0 0 0 0 0 0 0 0 0 0 0 0 0 0 0 0 0 127 0" result="hardAlpha"/>
<feOffset dy="16.5517"/>
<feGaussianBlur stdDeviation="5.37931"/>
<feColorMatrix type="matrix" values="0 0 0 0 0.219608 0 0 0 0 0.219608 0 0 0 0 0.219608 0 0 0 0.05 0"/>
<feBlend mode="normal" in2="effect2_dropShadow_15_4" result="effect3_dropShadow_15_4"/>
<feColorMatrix in="SourceAlpha" type="matrix" values="0 0 0 0 0 0 0 0 0 0 0 0 0 0 0 0 0 0 127 0" result="hardAlpha"/>
<feOffset dy="31.8774"/>
<feGaussianBlur stdDeviation="10.5441"/>
<feColorMatrix type="matrix" values="0 0 0 0 0.219608 0 0 0 0 0.219608 0 0 0 0 0.219608 0 0 0 0.0607407 0"/>
<feBlend mode="normal" in2="effect3_dropShadow_15_4" result="effect4_dropShadow_15_4"/>
<feColorMatrix in="SourceAlpha" type="matrix" values="0 0 0 0 0 0 0 0 0 0 0 0 0 0 0 0 0 0 127 0" result="hardAlpha"/>
<feOffset dy="53.6398"/>
<feGaussianBlur stdDeviation="19.387"/>
<feColorMatrix type="matrix" values="0 0 0 0 0.219608 0 0 0 0 0.219608 0 0 0 0 0.219608 0 0 0 0.0759259 0"/>
<feBlend mode="normal" in2="effect4_dropShadow_15_4" result="effect5_dropShadow_15_4"/>
<feBlend mode="normal" in="SourceGraphic" in2="effect5_dropShadow_15_4" result="shape"/>
</filter>
<filter id="filter2_d_15_4" x="291.049" y="154.187" width="21.9" height="8.06226" filterUnits="userSpaceOnUse" color-interpolation-filters="sRGB">
<feFlood flood-opacity="0" result="BackgroundImageFix"/>
<feColorMatrix in="SourceAlpha" type="matrix" values="0 0 0 0 0 0 0 0 0 0 0 0 0 0 0 0 0 0 127 0" result="hardAlpha"/>
<feOffset dy="1.5"/>
<feGaussianBlur stdDeviation="0.75"/>
<feColorMatrix type="matrix" values="0 0 0 0 1 0 0 0 0 0.509681 0 0 0 0 0 0 0 0 0.371207 0"/>
<feBlend mode="normal" in2="BackgroundImageFix" result="effect1_dropShadow_15_4"/>
<feBlend mode="normal" in="SourceGraphic" in2="effect1_dropShadow_15_4" result="shape"/>
</filter>
<filter id="filter3_i_15_4" x="287.147" y="140.351" width="29.7003" height="8.77515" filterUnits="userSpaceOnUse" color-interpolation-filters="sRGB">
<feFlood flood-opacity="0" result="BackgroundImageFix"/>
<feBlend mode="normal" in="SourceGraphic" in2="BackgroundImageFix" result="shape"/>
<feColorMatrix in="SourceAlpha" type="matrix" values="0 0 0 0 0 0 0 0 0 0 0 0 0 0 0 0 0 0 127 0" result="hardAlpha"/>
<feOffset/>
<feGaussianBlur stdDeviation="0.75"/>
<feComposite in2="hardAlpha" operator="arithmetic" k2="-1" k3="1"/>
<feColorMatrix type="matrix" values="0 0 0 0 0.0387428 0 0 0 0 0.0406183 0 0 0 0 0.0875053 0 0 0 1 0"/>
<feBlend mode="normal" in2="shape" result="effect1_innerShadow_15_4"/>
</filter>
<filter id="filter4_d_15_4" x="283.287" y="132" width="37.4223" height="8.25215" filterUnits="userSpaceOnUse" color-interpolation-filters="sRGB">
<feFlood flood-opacity="0" result="BackgroundImageFix"/>
<feColorMatrix in="SourceAlpha" type="matrix" values="0 0 0 0 0 0 0 0 0 0 0 0 0 0 0 0 0 0 127 0" result="hardAlpha"/>
<feOffset dy="0.9"/>
<feGaussianBlur stdDeviation="0.075"/>
<feColorMatrix type="matrix" values="0 0 0 0 0.565875 0 0 0 0 0.151272 0 0 0 0 0 0 0 0 0.15024 0"/>
<feBlend mode="normal" in2="BackgroundImageFix" result="effect1_dropShadow_15_4"/>
<feBlend mode="normal" in="SourceGraphic" in2="effect1_dropShadow_15_4" result="shape"/>
</filter>
<filter id="filter5_i_15_4" x="199.812" y="125.5" width="30.375" height="10.125" filterUnits="userSpaceOnUse" color-interpolation-filters="sRGB">
<feFlood flood-opacity="0" result="BackgroundImageFix"/>
<feBlend mode="normal" in="SourceGraphic" in2="BackgroundImageFix" result="shape"/>
<feColorMatrix in="SourceAlpha" type="matrix" values="0 0 0 0 0 0 0 0 0 0 0 0 0 0 0 0 0 0 127 0" result="hardAlpha"/>
<feOffset/>
<feGaussianBlur stdDeviation="0.75"/>
<feComposite in2="hardAlpha" operator="arithmetic" k2="-1" k3="1"/>
<feColorMatrix type="matrix" values="0 0 0 0 0.0980392 0 0 0 0 0.101961 0 0 0 0 0.2 0 0 0 0.819684 0"/>
<feBlend mode="normal" in2="shape" result="effect1_innerShadow_15_4"/>
</filter>
<filter id="filter6_d_15_4" x="194.598" y="114.698" width="40.8002" height="13.0476" filterUnits="userSpaceOnUse" color-interpolation-filters="sRGB">
<feFlood flood-opacity="0" result="BackgroundImageFix"/>
<feColorMatrix in="SourceAlpha" type="matrix" values="0 0 0 0 0 0 0 0 0 0 0 0 0 0 0 0 0 0 127 0" result="hardAlpha"/>
<feOffset dy="1.5"/>
<feGaussianBlur stdDeviation="2.25"/>
<feColorMatrix type="matrix" values="0 0 0 0 0.803922 0 0 0 0 0.388235 0 0 0 0 0.00392157 0 0 0 0.145679 0"/>
<feBlend mode="normal" in2="BackgroundImageFix" result="effect1_dropShadow_15_4"/>
<feBlend mode="normal" in="SourceGraphic" in2="effect1_dropShadow_15_4" result="shape"/>
</filter>
<linearGradient id="paint0_linear_15_4" x1="302" y1="112" x2="302" y2="148.285" gradientUnits="userSpaceOnUse">
<stop stop-color="#E04300"/>
<stop offset="0.776042" stop-color="#FFA320"/>
</linearGradient>
<linearGradient id="paint1_linear_15_4" x1="301.998" y1="158.564" x2="301.998" y2="154.187" gradientUnits="userSpaceOnUse">
<stop stop-color="#3D0D00"/>
<stop offset="1" stop-color="#661C04"/>
</linearGradient>
<linearGradient id="paint2_linear_15_4" x1="301.998" y1="140.349" x2="301.998" y2="149.124" gradientUnits="userSpaceOnUse">
<stop stop-color="#191A33"/>
<stop offset="0.872" stop-color="#3B426A"/>
</linearGradient>
<linearGradient id="paint3_linear_15_4" x1="314.201" y1="131.328" x2="314.201" y2="139.202" gradientUnits="userSpaceOnUse">
<stop stop-color="#9A2F00"/>
<stop offset="1" stop-color="#D44800"/>
</linearGradient>
<linearGradient id="paint4_linear_15_4" x1="215" y1="117.535" x2="215" y2="166" gradientUnits="userSpaceOnUse">
<stop stop-color="#FEEA70"/>
<stop offset="1" stop-color="#F69B30"/>
</linearGradient>
<linearGradient id="paint5_linear_15_4" x1="215" y1="139" x2="215" y2="159.25" gradientUnits="userSpaceOnUse">
<stop stop-color="#472315"/>
<stop offset="1" stop-color="#8B3A0E"/>
</linearGradient>
<linearGradient id="paint6_linear_15_4" x1="215" y1="125.5" x2="215" y2="135.625" gradientUnits="userSpaceOnUse">
<stop stop-color="#191A33"/>
<stop offset="0.872" stop-color="#3B426A"/>
</linearGradient>
<linearGradient id="paint7_linear_15_4" x1="214.997" y1="117.697" x2="214.997" y2="121.747" gradientUnits="userSpaceOnUse">
<stop stop-color="#E78E0D"/>
<stop offset="1" stop-color="#CB6000"/>
</linearGradient>
<linearGradient id="paint8_linear_15_4" x1="389" y1="112" x2="389" y2="166" gradientUnits="userSpaceOnUse">
<stop stop-color="#FF6680"/>
<stop offset="1" stop-color="#E61739"/>
</linearGradient>
</defs>
</svg>
