<svg width="560" height="271" viewBox="0 0 560 271" fill="none" xmlns="http://www.w3.org/2000/svg">
<g id="search bar">
<path id="Ellipse 1328" d="M449 48C449 75.4463 443.594 102.624 433.091 127.981C422.588 153.338 407.193 176.378 387.785 195.785C368.378 215.193 345.338 230.588 319.981 241.091C294.624 251.594 267.446 257 240 257C212.554 257 185.376 251.594 160.019 241.091C134.662 230.588 111.622 215.193 92.2147 195.785C72.8072 176.378 57.4124 153.338 46.9092 127.981C36.4059 102.624 31 75.4463 31 48L449 48Z" fill="#F5F7FF"/>
<g id="Group 1000001639">
<g id="Rectangle 716" filter="url(#filter0_ddddd_13_3771)">
<rect x="138" y="41" width="383" height="137" fill="white"/>
<rect x="138.414" y="41.4138" width="382.172" height="136.172" stroke="#F1F1F1" stroke-width="0.827586"/>
</g>
<g id="search bar_2">
<g id="Rectangle 4318" filter="url(#filter1_i_13_3771)">
<rect x="177" y="98" width="315" height="50" fill="#FAFAFA"/>
</g>
<g id="Group 1000001638">
<g id="Vector 20" filter="url(#filter2_d_13_3771)">
<path d="M418 107.5V142" stroke="#E8E7E7"/>
</g>
<path id="Vector 19" d="M417.5 107V141.5" stroke="white"/>
</g>
<g id="search 1" filter="url(#filter3_d_13_3771)">
<g id="find,-glass,-magnify,-search">
<path id="Shape" d="M446.138 117.133C449.148 114.232 453.627 114.347 456.412 117.133C459.075 119.796 459.238 124.013 456.9 126.867L461.035 131.002L460.008 132.029L455.873 127.895C453.019 130.232 448.802 130.07 446.138 127.406C443.353 124.621 443.222 119.944 446.138 117.133ZM455.385 118.16C453.115 115.89 449.435 115.89 447.166 118.16C444.896 120.43 444.896 124.109 447.166 126.379C449.435 128.648 453.115 128.648 455.385 126.379C457.654 124.109 457.654 120.43 455.385 118.16Z" fill="#0AC05E"/>
</g>
</g>
<path id="Search services" d="M194.025 128.084C193.473 128.084 192.977 127.988 192.537 127.796C192.105 127.596 191.765 127.324 191.517 126.98C191.269 126.628 191.141 126.224 191.133 125.768H192.297C192.337 126.16 192.497 126.492 192.777 126.764C193.065 127.028 193.481 127.16 194.025 127.16C194.545 127.16 194.953 127.032 195.249 126.776C195.553 126.512 195.705 126.176 195.705 125.768C195.705 125.448 195.617 125.188 195.441 124.988C195.265 124.788 195.045 124.636 194.781 124.532C194.517 124.428 194.161 124.316 193.713 124.196C193.161 124.052 192.717 123.908 192.381 123.764C192.053 123.62 191.769 123.396 191.529 123.092C191.297 122.78 191.181 122.364 191.181 121.844C191.181 121.388 191.297 120.984 191.529 120.632C191.761 120.28 192.085 120.008 192.501 119.816C192.925 119.624 193.409 119.528 193.953 119.528C194.737 119.528 195.377 119.724 195.873 120.116C196.377 120.508 196.661 121.028 196.725 121.676H195.525C195.485 121.356 195.317 121.076 195.021 120.836C194.725 120.588 194.333 120.464 193.845 120.464C193.389 120.464 193.017 120.584 192.729 120.824C192.441 121.056 192.297 121.384 192.297 121.808C192.297 122.112 192.381 122.36 192.549 122.552C192.725 122.744 192.937 122.892 193.185 122.996C193.441 123.092 193.797 123.204 194.253 123.332C194.805 123.484 195.249 123.636 195.585 123.788C195.921 123.932 196.209 124.16 196.449 124.472C196.689 124.776 196.809 125.192 196.809 125.72C196.809 126.128 196.701 126.512 196.485 126.872C196.269 127.232 195.949 127.524 195.525 127.748C195.101 127.972 194.601 128.084 194.025 128.084ZM204.416 124.46C204.416 124.668 204.404 124.888 204.38 125.12H199.124C199.164 125.768 199.384 126.276 199.784 126.644C200.192 127.004 200.684 127.184 201.26 127.184C201.732 127.184 202.124 127.076 202.436 126.86C202.756 126.636 202.98 126.34 203.108 125.972H204.284C204.108 126.604 203.756 127.12 203.228 127.52C202.7 127.912 202.044 128.108 201.26 128.108C200.636 128.108 200.076 127.968 199.58 127.688C199.092 127.408 198.708 127.012 198.428 126.5C198.148 125.98 198.008 125.38 198.008 124.7C198.008 124.02 198.144 123.424 198.416 122.912C198.688 122.4 199.068 122.008 199.556 121.736C200.052 121.456 200.62 121.316 201.26 121.316C201.884 121.316 202.436 121.452 202.916 121.724C203.396 121.996 203.764 122.372 204.02 122.852C204.284 123.324 204.416 123.86 204.416 124.46ZM203.288 124.232C203.288 123.816 203.196 123.46 203.012 123.164C202.828 122.86 202.576 122.632 202.256 122.48C201.944 122.32 201.596 122.24 201.212 122.24C200.66 122.24 200.188 122.416 199.796 122.768C199.412 123.12 199.192 123.608 199.136 124.232H203.288ZM205.45 124.688C205.45 124.016 205.586 123.428 205.858 122.924C206.13 122.412 206.502 122.016 206.974 121.736C207.454 121.456 207.986 121.316 208.57 121.316C209.146 121.316 209.646 121.44 210.07 121.688C210.494 121.936 210.81 122.248 211.018 122.624V121.424H212.122V128H211.018V126.776C210.802 127.16 210.478 127.48 210.046 127.736C209.622 127.984 209.126 128.108 208.558 128.108C207.974 128.108 207.446 127.964 206.974 127.676C206.502 127.388 206.13 126.984 205.858 126.464C205.586 125.944 205.45 125.352 205.45 124.688ZM211.018 124.7C211.018 124.204 210.918 123.772 210.718 123.404C210.518 123.036 210.246 122.756 209.902 122.564C209.566 122.364 209.194 122.264 208.786 122.264C208.378 122.264 208.006 122.36 207.67 122.552C207.334 122.744 207.066 123.024 206.866 123.392C206.666 123.76 206.566 124.192 206.566 124.688C206.566 125.192 206.666 125.632 206.866 126.008C207.066 126.376 207.334 126.66 207.67 126.86C208.006 127.052 208.378 127.148 208.786 127.148C209.194 127.148 209.566 127.052 209.902 126.86C210.246 126.66 210.518 126.376 210.718 126.008C210.918 125.632 211.018 125.196 211.018 124.7ZM215.059 122.492C215.251 122.116 215.523 121.824 215.875 121.616C216.235 121.408 216.671 121.304 217.183 121.304V122.432H216.895C215.671 122.432 215.059 123.096 215.059 124.424V128H213.967V121.424H215.059V122.492ZM218.036 124.7C218.036 124.02 218.172 123.428 218.444 122.924C218.716 122.412 219.092 122.016 219.572 121.736C220.06 121.456 220.616 121.316 221.24 121.316C222.048 121.316 222.712 121.512 223.232 121.904C223.76 122.296 224.108 122.84 224.276 123.536H223.1C222.988 123.136 222.768 122.82 222.44 122.588C222.12 122.356 221.72 122.24 221.24 122.24C220.616 122.24 220.112 122.456 219.728 122.888C219.344 123.312 219.152 123.916 219.152 124.7C219.152 125.492 219.344 126.104 219.728 126.536C220.112 126.968 220.616 127.184 221.24 127.184C221.72 127.184 222.12 127.072 222.44 126.848C222.76 126.624 222.98 126.304 223.1 125.888H224.276C224.1 126.56 223.748 127.1 223.22 127.508C222.692 127.908 222.032 128.108 221.24 128.108C220.616 128.108 220.06 127.968 219.572 127.688C219.092 127.408 218.716 127.012 218.444 126.5C218.172 125.988 218.036 125.388 218.036 124.7ZM228.997 121.304C229.493 121.304 229.941 121.412 230.341 121.628C230.741 121.836 231.053 122.152 231.277 122.576C231.509 123 231.625 123.516 231.625 124.124V128H230.545V124.28C230.545 123.624 230.381 123.124 230.053 122.78C229.725 122.428 229.277 122.252 228.709 122.252C228.133 122.252 227.673 122.432 227.329 122.792C226.993 123.152 226.825 123.676 226.825 124.364V128H225.733V119.12H226.825V122.36C227.041 122.024 227.337 121.764 227.713 121.58C228.097 121.396 228.525 121.304 228.997 121.304ZM238.936 128.108C238.432 128.108 237.98 128.024 237.58 127.856C237.18 127.68 236.864 127.44 236.632 127.136C236.4 126.824 236.272 126.468 236.248 126.068H237.376C237.408 126.396 237.56 126.664 237.832 126.872C238.112 127.08 238.476 127.184 238.924 127.184C239.34 127.184 239.668 127.092 239.908 126.908C240.148 126.724 240.268 126.492 240.268 126.212C240.268 125.924 240.14 125.712 239.884 125.576C239.628 125.432 239.232 125.292 238.696 125.156C238.208 125.028 237.808 124.9 237.496 124.772C237.192 124.636 236.928 124.44 236.704 124.184C236.488 123.92 236.38 123.576 236.38 123.152C236.38 122.816 236.48 122.508 236.68 122.228C236.88 121.948 237.164 121.728 237.532 121.568C237.9 121.4 238.32 121.316 238.792 121.316C239.52 121.316 240.108 121.5 240.556 121.868C241.004 122.236 241.244 122.74 241.276 123.38H240.184C240.16 123.036 240.02 122.76 239.764 122.552C239.516 122.344 239.18 122.24 238.756 122.24C238.364 122.24 238.052 122.324 237.82 122.492C237.588 122.66 237.472 122.88 237.472 123.152C237.472 123.368 237.54 123.548 237.676 123.692C237.82 123.828 237.996 123.94 238.204 124.028C238.42 124.108 238.716 124.2 239.092 124.304C239.564 124.432 239.948 124.56 240.244 124.688C240.54 124.808 240.792 124.992 241 125.24C241.216 125.488 241.328 125.812 241.336 126.212C241.336 126.572 241.236 126.896 241.036 127.184C240.836 127.472 240.552 127.7 240.184 127.868C239.824 128.028 239.408 128.108 238.936 128.108ZM248.877 124.46C248.877 124.668 248.865 124.888 248.841 125.12H243.585C243.625 125.768 243.845 126.276 244.245 126.644C244.653 127.004 245.145 127.184 245.721 127.184C246.193 127.184 246.585 127.076 246.897 126.86C247.217 126.636 247.441 126.34 247.569 125.972H248.745C248.569 126.604 248.217 127.12 247.689 127.52C247.161 127.912 246.505 128.108 245.721 128.108C245.097 128.108 244.537 127.968 244.041 127.688C243.553 127.408 243.169 127.012 242.889 126.5C242.609 125.98 242.469 125.38 242.469 124.7C242.469 124.02 242.605 123.424 242.877 122.912C243.149 122.4 243.529 122.008 244.017 121.736C244.513 121.456 245.081 121.316 245.721 121.316C246.345 121.316 246.897 121.452 247.377 121.724C247.857 121.996 248.225 122.372 248.481 122.852C248.745 123.324 248.877 123.86 248.877 124.46ZM247.749 124.232C247.749 123.816 247.657 123.46 247.473 123.164C247.289 122.86 247.037 122.632 246.717 122.48C246.405 122.32 246.057 122.24 245.673 122.24C245.121 122.24 244.649 122.416 244.257 122.768C243.873 123.12 243.653 123.608 243.597 124.232H247.749ZM251.411 122.492C251.603 122.116 251.875 121.824 252.227 121.616C252.587 121.408 253.023 121.304 253.535 121.304V122.432H253.247C252.023 122.432 251.411 123.096 251.411 124.424V128H250.319V121.424H251.411V122.492ZM257.243 126.992L259.283 121.424H260.447L257.867 128H256.595L254.015 121.424H255.191L257.243 126.992ZM262.086 120.356C261.878 120.356 261.702 120.284 261.558 120.14C261.414 119.996 261.342 119.82 261.342 119.612C261.342 119.404 261.414 119.228 261.558 119.084C261.702 118.94 261.878 118.868 262.086 118.868C262.286 118.868 262.454 118.94 262.59 119.084C262.734 119.228 262.806 119.404 262.806 119.612C262.806 119.82 262.734 119.996 262.59 120.14C262.454 120.284 262.286 120.356 262.086 120.356ZM262.614 121.424V128H261.522V121.424H262.614ZM264.067 124.7C264.067 124.02 264.203 123.428 264.475 122.924C264.747 122.412 265.123 122.016 265.603 121.736C266.091 121.456 266.647 121.316 267.271 121.316C268.079 121.316 268.743 121.512 269.263 121.904C269.791 122.296 270.139 122.84 270.307 123.536H269.131C269.019 123.136 268.799 122.82 268.471 122.588C268.151 122.356 267.751 122.24 267.271 122.24C266.647 122.24 266.143 122.456 265.759 122.888C265.375 123.312 265.183 123.916 265.183 124.7C265.183 125.492 265.375 126.104 265.759 126.536C266.143 126.968 266.647 127.184 267.271 127.184C267.751 127.184 268.151 127.072 268.471 126.848C268.791 126.624 269.011 126.304 269.131 125.888H270.307C270.131 126.56 269.779 127.1 269.251 127.508C268.723 127.908 268.063 128.108 267.271 128.108C266.647 128.108 266.091 127.968 265.603 127.688C265.123 127.408 264.747 127.012 264.475 126.5C264.203 125.988 264.067 125.388 264.067 124.7ZM277.764 124.46C277.764 124.668 277.752 124.888 277.728 125.12H272.472C272.512 125.768 272.732 126.276 273.132 126.644C273.54 127.004 274.032 127.184 274.608 127.184C275.08 127.184 275.472 127.076 275.784 126.86C276.104 126.636 276.328 126.34 276.456 125.972H277.632C277.456 126.604 277.104 127.12 276.576 127.52C276.048 127.912 275.392 128.108 274.608 128.108C273.984 128.108 273.424 127.968 272.928 127.688C272.44 127.408 272.056 127.012 271.776 126.5C271.496 125.98 271.356 125.38 271.356 124.7C271.356 124.02 271.492 123.424 271.764 122.912C272.036 122.4 272.416 122.008 272.904 121.736C273.4 121.456 273.968 121.316 274.608 121.316C275.232 121.316 275.784 121.452 276.264 121.724C276.744 121.996 277.112 122.372 277.368 122.852C277.632 123.324 277.764 123.86 277.764 124.46ZM276.636 124.232C276.636 123.816 276.544 123.46 276.36 123.164C276.176 122.86 275.924 122.632 275.604 122.48C275.292 122.32 274.944 122.24 274.56 122.24C274.008 122.24 273.536 122.416 273.144 122.768C272.76 123.12 272.54 123.608 272.484 124.232H276.636ZM281.533 128.108C281.029 128.108 280.577 128.024 280.177 127.856C279.777 127.68 279.461 127.44 279.229 127.136C278.997 126.824 278.869 126.468 278.845 126.068H279.973C280.005 126.396 280.157 126.664 280.429 126.872C280.709 127.08 281.073 127.184 281.521 127.184C281.937 127.184 282.265 127.092 282.505 126.908C282.745 126.724 282.865 126.492 282.865 126.212C282.865 125.924 282.737 125.712 282.481 125.576C282.225 125.432 281.829 125.292 281.293 125.156C280.805 125.028 280.405 124.9 280.093 124.772C279.789 124.636 279.525 124.44 279.301 124.184C279.085 123.92 278.977 123.576 278.977 123.152C278.977 122.816 279.077 122.508 279.277 122.228C279.477 121.948 279.761 121.728 280.129 121.568C280.497 121.4 280.917 121.316 281.389 121.316C282.117 121.316 282.705 121.5 283.153 121.868C283.601 122.236 283.841 122.74 283.873 123.38H282.781C282.757 123.036 282.617 122.76 282.361 122.552C282.113 122.344 281.777 122.24 281.353 122.24C280.961 122.24 280.649 122.324 280.417 122.492C280.185 122.66 280.069 122.88 280.069 123.152C280.069 123.368 280.137 123.548 280.273 123.692C280.417 123.828 280.593 123.94 280.801 124.028C281.017 124.108 281.313 124.2 281.689 124.304C282.161 124.432 282.545 124.56 282.841 124.688C283.137 124.808 283.389 124.992 283.597 125.24C283.813 125.488 283.925 125.812 283.933 126.212C283.933 126.572 283.833 126.896 283.633 127.184C283.433 127.472 283.149 127.7 282.781 127.868C282.421 128.028 282.005 128.108 281.533 128.108Z" fill="#D7D7D7"/>
</g>
</g>
<path id="02" d="M4.58563 46C4.58563 34.992 6.69763 26.32 10.9216 19.984C15.2096 13.648 22.0896 10.48 31.5616 10.48C41.0336 10.48 47.8816 13.648 52.1056 19.984C56.3936 26.32 58.5376 34.992 58.5376 46C58.5376 57.136 56.3936 65.872 52.1056 72.208C47.8816 78.544 41.0336 81.712 31.5616 81.712C22.0896 81.712 15.2096 78.544 10.9216 72.208C6.69763 65.872 4.58563 57.136 4.58563 46ZM42.4096 46C42.4096 39.536 41.7056 34.576 40.2976 31.12C38.8896 27.6 35.9776 25.84 31.5616 25.84C27.1456 25.84 24.2336 27.6 22.8256 31.12C21.4176 34.576 20.7136 39.536 20.7136 46C20.7136 50.352 20.9696 53.968 21.4816 56.848C21.9936 59.664 23.0176 61.968 24.5536 63.76C26.1536 65.488 28.4896 66.352 31.5616 66.352C34.6336 66.352 36.9376 65.488 38.4736 63.76C40.0736 61.968 41.1296 59.664 41.6416 56.848C42.1536 53.968 42.4096 50.352 42.4096 46ZM66.6346 68.848C68.8106 67.12 69.8026 66.32 69.6106 66.448C75.8826 61.264 80.8106 57.008 84.3946 53.68C88.0426 50.352 91.1146 46.864 93.6106 43.216C96.1066 39.568 97.3546 36.016 97.3546 32.56C97.3546 29.936 96.7466 27.888 95.5306 26.416C94.3146 24.944 92.4906 24.208 90.0586 24.208C87.6266 24.208 85.7066 25.136 84.2986 26.992C82.9546 28.784 82.2826 31.344 82.2826 34.672H66.4426C66.5706 29.232 67.7226 24.688 69.8986 21.04C72.1386 17.392 75.0506 14.704 78.6346 12.976C82.2826 11.248 86.3146 10.384 90.7306 10.384C98.3466 10.384 104.075 12.336 107.915 16.24C111.819 20.144 113.771 25.232 113.771 31.504C113.771 38.352 111.435 44.72 106.763 50.608C102.091 56.432 96.1386 62.128 88.9066 67.696H114.827V81.04H66.6346V68.848Z" fill="#D7D7D7"/>
<path id="Search" d="M297.024 78.154C296.012 78.154 295.102 77.978 294.296 77.626C293.504 77.2593 292.88 76.7607 292.426 76.13C291.971 75.4847 291.736 74.744 291.722 73.908H293.856C293.929 74.6267 294.222 75.2353 294.736 75.734C295.264 76.218 296.026 76.46 297.024 76.46C297.977 76.46 298.725 76.2253 299.268 75.756C299.825 75.272 300.104 74.656 300.104 73.908C300.104 73.3213 299.942 72.8447 299.62 72.478C299.297 72.1113 298.894 71.8327 298.41 71.642C297.926 71.4513 297.273 71.246 296.452 71.026C295.44 70.762 294.626 70.498 294.01 70.234C293.408 69.97 292.888 69.5593 292.448 69.002C292.022 68.43 291.81 67.6673 291.81 66.714C291.81 65.878 292.022 65.1373 292.448 64.492C292.873 63.8467 293.467 63.348 294.23 62.996C295.007 62.644 295.894 62.468 296.892 62.468C298.329 62.468 299.502 62.8273 300.412 63.546C301.336 64.2647 301.856 65.218 301.974 66.406H299.774C299.7 65.8193 299.392 65.306 298.85 64.866C298.307 64.4113 297.588 64.184 296.694 64.184C295.858 64.184 295.176 64.404 294.648 64.844C294.12 65.2693 293.856 65.8707 293.856 66.648C293.856 67.2053 294.01 67.66 294.318 68.012C294.64 68.364 295.029 68.6353 295.484 68.826C295.953 69.002 296.606 69.2073 297.442 69.442C298.454 69.7207 299.268 69.9993 299.884 70.278C300.5 70.542 301.028 70.96 301.468 71.532C301.908 72.0893 302.128 72.852 302.128 73.82C302.128 74.568 301.93 75.272 301.534 75.932C301.138 76.592 300.551 77.1273 299.774 77.538C298.996 77.9487 298.08 78.154 297.024 78.154ZM316.074 71.51C316.074 71.8913 316.052 72.2947 316.008 72.72H306.372C306.445 73.908 306.849 74.8393 307.582 75.514C308.33 76.174 309.232 76.504 310.288 76.504C311.153 76.504 311.872 76.306 312.444 75.91C313.031 75.4993 313.441 74.9567 313.676 74.282H315.832C315.509 75.4407 314.864 76.3867 313.896 77.12C312.928 77.8387 311.725 78.198 310.288 78.198C309.144 78.198 308.117 77.9413 307.208 77.428C306.313 76.9147 305.609 76.1887 305.096 75.25C304.583 74.2967 304.326 73.1967 304.326 71.95C304.326 70.7033 304.575 69.6107 305.074 68.672C305.573 67.7333 306.269 67.0147 307.164 66.516C308.073 66.0027 309.115 65.746 310.288 65.746C311.432 65.746 312.444 65.9953 313.324 66.494C314.204 66.9927 314.879 67.682 315.348 68.562C315.832 69.4273 316.074 70.41 316.074 71.51ZM314.006 71.092C314.006 70.3293 313.837 69.6767 313.5 69.134C313.163 68.5767 312.701 68.1587 312.114 67.88C311.542 67.5867 310.904 67.44 310.2 67.44C309.188 67.44 308.323 67.7627 307.604 68.408C306.9 69.0533 306.497 69.948 306.394 71.092H314.006ZM317.968 71.928C317.968 70.696 318.218 69.618 318.716 68.694C319.215 67.7553 319.897 67.0293 320.762 66.516C321.642 66.0027 322.618 65.746 323.688 65.746C324.744 65.746 325.661 65.9733 326.438 66.428C327.216 66.8827 327.795 67.4547 328.176 68.144V65.944H330.2V78H328.176V75.756C327.78 76.46 327.186 77.0467 326.394 77.516C325.617 77.9707 324.708 78.198 323.666 78.198C322.596 78.198 321.628 77.934 320.762 77.406C319.897 76.878 319.215 76.1373 318.716 75.184C318.218 74.2307 317.968 73.1453 317.968 71.928ZM328.176 71.95C328.176 71.0407 327.993 70.2487 327.626 69.574C327.26 68.8993 326.761 68.386 326.13 68.034C325.514 67.6673 324.832 67.484 324.084 67.484C323.336 67.484 322.654 67.66 322.038 68.012C321.422 68.364 320.931 68.8773 320.564 69.552C320.198 70.2267 320.014 71.0187 320.014 71.928C320.014 72.852 320.198 73.6587 320.564 74.348C320.931 75.0227 321.422 75.5433 322.038 75.91C322.654 76.262 323.336 76.438 324.084 76.438C324.832 76.438 325.514 76.262 326.13 75.91C326.761 75.5433 327.26 75.0227 327.626 74.348C327.993 73.6587 328.176 72.8593 328.176 71.95ZM335.586 67.902C335.938 67.2127 336.436 66.6773 337.082 66.296C337.742 65.9147 338.541 65.724 339.48 65.724V67.792H338.952C336.708 67.792 335.586 69.0093 335.586 71.444V78H333.584V65.944H335.586V67.902ZM341.043 71.95C341.043 70.7033 341.292 69.618 341.791 68.694C342.289 67.7553 342.979 67.0293 343.859 66.516C344.753 66.0027 345.773 65.746 346.917 65.746C348.398 65.746 349.615 66.1053 350.569 66.824C351.537 67.5427 352.175 68.54 352.483 69.816H350.327C350.121 69.0827 349.718 68.5033 349.117 68.078C348.53 67.6527 347.797 67.44 346.917 67.44C345.773 67.44 344.849 67.836 344.145 68.628C343.441 69.4053 343.089 70.5127 343.089 71.95C343.089 73.402 343.441 74.524 344.145 75.316C344.849 76.108 345.773 76.504 346.917 76.504C347.797 76.504 348.53 76.2987 349.117 75.888C349.703 75.4773 350.107 74.8907 350.327 74.128H352.483C352.16 75.36 351.515 76.35 350.547 77.098C349.579 77.8313 348.369 78.198 346.917 78.198C345.773 78.198 344.753 77.9413 343.859 77.428C342.979 76.9147 342.289 76.1887 341.791 75.25C341.292 74.3113 341.043 73.2113 341.043 71.95ZM361.138 65.724C362.047 65.724 362.869 65.922 363.602 66.318C364.335 66.6993 364.907 67.2787 365.318 68.056C365.743 68.8333 365.956 69.7793 365.956 70.894V78H363.976V71.18C363.976 69.9773 363.675 69.0607 363.074 68.43C362.473 67.7847 361.651 67.462 360.61 67.462C359.554 67.462 358.711 67.792 358.08 68.452C357.464 69.112 357.156 70.0727 357.156 71.334V78H355.154V61.72H357.156V67.66C357.552 67.044 358.095 66.5673 358.784 66.23C359.488 65.8927 360.273 65.724 361.138 65.724Z" fill="#313131"/>
</g>
<defs>
<filter id="filter0_ddddd_13_3771" x="99.2261" y="39.9272" width="460.548" height="230.487" filterUnits="userSpaceOnUse" color-interpolation-filters="sRGB">
<feFlood flood-opacity="0" result="BackgroundImageFix"/>
<feColorMatrix in="SourceAlpha" type="matrix" values="0 0 0 0 0 0 0 0 0 0 0 0 0 0 0 0 0 0 127 0" result="hardAlpha"/>
<feOffset dy="1.53257"/>
<feGaussianBlur stdDeviation="1.30268"/>
<feColorMatrix type="matrix" values="0 0 0 0 0.219608 0 0 0 0 0.219608 0 0 0 0 0.219608 0 0 0 0.0240741 0"/>
<feBlend mode="normal" in2="BackgroundImageFix" result="effect1_dropShadow_13_3771"/>
<feColorMatrix in="SourceAlpha" type="matrix" values="0 0 0 0 0 0 0 0 0 0 0 0 0 0 0 0 0 0 127 0" result="hardAlpha"/>
<feOffset dy="6.7433"/>
<feGaussianBlur stdDeviation="2.69732"/>
<feColorMatrix type="matrix" values="0 0 0 0 0.219608 0 0 0 0 0.219608 0 0 0 0 0.219608 0 0 0 0.0392593 0"/>
<feBlend mode="normal" in2="effect1_dropShadow_13_3771" result="effect2_dropShadow_13_3771"/>
<feColorMatrix in="SourceAlpha" type="matrix" values="0 0 0 0 0 0 0 0 0 0 0 0 0 0 0 0 0 0 127 0" result="hardAlpha"/>
<feOffset dy="16.5517"/>
<feGaussianBlur stdDeviation="5.37931"/>
<feColorMatrix type="matrix" values="0 0 0 0 0.219608 0 0 0 0 0.219608 0 0 0 0 0.219608 0 0 0 0.05 0"/>
<feBlend mode="normal" in2="effect2_dropShadow_13_3771" result="effect3_dropShadow_13_3771"/>
<feColorMatrix in="SourceAlpha" type="matrix" values="0 0 0 0 0 0 0 0 0 0 0 0 0 0 0 0 0 0 127 0" result="hardAlpha"/>
<feOffset dy="31.8774"/>
<feGaussianBlur stdDeviation="10.5441"/>
<feColorMatrix type="matrix" values="0 0 0 0 0.219608 0 0 0 0 0.219608 0 0 0 0 0.219608 0 0 0 0.0607407 0"/>
<feBlend mode="normal" in2="effect3_dropShadow_13_3771" result="effect4_dropShadow_13_3771"/>
<feColorMatrix in="SourceAlpha" type="matrix" values="0 0 0 0 0 0 0 0 0 0 0 0 0 0 0 0 0 0 127 0" result="hardAlpha"/>
<feOffset dy="53.6398"/>
<feGaussianBlur stdDeviation="19.387"/>
<feColorMatrix type="matrix" values="0 0 0 0 0.219608 0 0 0 0 0.219608 0 0 0 0 0.219608 0 0 0 0.0759259 0"/>
<feBlend mode="normal" in2="effect4_dropShadow_13_3771" result="effect5_dropShadow_13_3771"/>
<feBlend mode="normal" in="SourceGraphic" in2="effect5_dropShadow_13_3771" result="shape"/>
</filter>
<filter id="filter1_i_13_3771" x="177" y="98" width="315" height="50" filterUnits="userSpaceOnUse" color-interpolation-filters="sRGB">
<feFlood flood-opacity="0" result="BackgroundImageFix"/>
<feBlend mode="normal" in="SourceGraphic" in2="BackgroundImageFix" result="shape"/>
<feColorMatrix in="SourceAlpha" type="matrix" values="0 0 0 0 0 0 0 0 0 0 0 0 0 0 0 0 0 0 127 0" result="hardAlpha"/>
<feOffset/>
<feGaussianBlur stdDeviation="3"/>
<feComposite in2="hardAlpha" operator="arithmetic" k2="-1" k3="1"/>
<feColorMatrix type="matrix" values="0 0 0 0 0 0 0 0 0 0 0 0 0 0 0 0 0 0 0.15 0"/>
<feBlend mode="normal" in2="shape" result="effect1_innerShadow_13_3771"/>
</filter>
<filter id="filter2_d_13_3771" x="415.5" y="105.5" width="9" height="42.5" filterUnits="userSpaceOnUse" color-interpolation-filters="sRGB">
<feFlood flood-opacity="0" result="BackgroundImageFix"/>
<feColorMatrix in="SourceAlpha" type="matrix" values="0 0 0 0 0 0 0 0 0 0 0 0 0 0 0 0 0 0 127 0" result="hardAlpha"/>
<feOffset dx="2" dy="2"/>
<feGaussianBlur stdDeviation="2"/>
<feComposite in2="hardAlpha" operator="out"/>
<feColorMatrix type="matrix" values="0 0 0 0 0 0 0 0 0 0 0 0 0 0 0 0 0 0 0.25 0"/>
<feBlend mode="normal" in2="BackgroundImageFix" result="effect1_dropShadow_13_3771"/>
<feBlend mode="normal" in="SourceGraphic" in2="effect1_dropShadow_13_3771" result="shape"/>
</filter>
<filter id="filter3_d_13_3771" x="444" y="115" width="21.035" height="21.0293" filterUnits="userSpaceOnUse" color-interpolation-filters="sRGB">
<feFlood flood-opacity="0" result="BackgroundImageFix"/>
<feColorMatrix in="SourceAlpha" type="matrix" values="0 0 0 0 0 0 0 0 0 0 0 0 0 0 0 0 0 0 127 0" result="hardAlpha"/>
<feOffset dx="2" dy="2"/>
<feGaussianBlur stdDeviation="1"/>
<feComposite in2="hardAlpha" operator="out"/>
<feColorMatrix type="matrix" values="0 0 0 0 0 0 0 0 0 0 0 0 0 0 0 0 0 0 0.25 0"/>
<feBlend mode="normal" in2="BackgroundImageFix" result="effect1_dropShadow_13_3771"/>
<feBlend mode="normal" in="SourceGraphic" in2="effect1_dropShadow_13_3771" result="shape"/>
</filter>
</defs>
</svg>
